/* XPM */
static char * blinky_east_00_xpm[] = {
"32 32 4 1",
" 	c #8C8C8C",
".	c #FF0000",
"+	c #F8F8F8",
"@	c #0012FF",
"                                ",
"                                ",
"            ........            ",
"            ........            ",
"        ................        ",
"        ................        ",
"      ....................      ",
"      ....................      ",
"    ......++++........++++..    ",
"    ......++++........++++..    ",
"    ....++++++++....++++++++    ",
"    ....++++++++....++++++++    ",
"    ....++++@@@@....++++@@@@    ",
"    ....++++@@@@....++++@@@@    ",
"  ......++++@@@@....++++@@@@..  ",
"  ......++++@@@@....++++@@@@..  ",
"  ........++++........++++....  ",
"  ........++++........++++....  ",
"  ............................  ",
"  ............................  ",
"  ............................  ",
"  ............................  ",
"  ............................  ",
"  ............................  ",
"  ............................  ",
"  ............................  ",
"  ....  ......    ......  ....  ",
"  ....  ......    ......  ....  ",
"  ..      ....    ....      ..  ",
"  ..      ....    ....      ..  ",
"                                ",
"                                "};
