/* XPM */
static char * cherry_xpm[] = {
"32 32 5 1",
" 	c #8C8C8C",
".	c #000000",
"+	c #DAC653",
"@	c #FF0000",
"#	c #F8F8F8",
"                          ....  ",
"                          ....  ",
"                      ....++++..",
"                      ....++++..",
"                  ....++++++++..",
"                  ....++++++++..",
"                ..++++..++....  ",
"                ..++++..++....  ",
"      ..........++....++++..    ",
"      ..........++....++++..    ",
"    ..@@@@@@@@++..    ++..      ",
"    ..@@@@@@@@++..    ++..      ",
"  ..@@@@@@@@++@@@@..++....      ",
"  ..@@@@@@@@++@@@@..++....      ",
"  ..@@@@@@@@@@@@..@@++@@@@..    ",
"  ..@@@@@@@@@@@@..@@++@@@@..    ",
"  ..@##@@@@@@@@.@@@@++@@@@@@..  ",
"  ..@##@@@@@@@..@@@@++@@@@@@..  ",
"  ..@@@##@@@@@..@@@@@@@@@@@@..  ",
"  ..@@@##@@@@@..@@@@@@@@@@@@..  ",
"    ..@@@@@@@@..@@##@@@@@@@@..  ",
"    ..@@@@@@@@..@@##@@@@@@@@..  ",
"      ..........@@@@##@@@@@@..  ",
"      ..........@@@@##@@@@@@..  ",
"                ..@@@@@@@@..    ",
"                ..@@@@@@@@..    ",
"                  ........      ",
"                  ........      ",
"                                ",
"                                ",
"                                ",
"                                "};
