/* XPM */
static char * clyde_north_01_xpm[] = {
"32 32 4 1",
" 	c #8C8C8C",
".	c #FFAC00",
"+	c #0012FF",
"@	c #F8F8F8",
"                                ",
"                                ",
"            ........            ",
"            ........            ",
"        ++++........++++        ",
"        ++++........++++        ",
"      @@++++@@....@@++++@@      ",
"      @@++++@@....@@++++@@      ",
"    ..@@@@@@@@....@@@@@@@@..    ",
"    ..@@@@@@@@....@@@@@@@@..    ",
"    ..@@@@@@@@....@@@@@@@@..    ",
"    ..@@@@@@@@....@@@@@@@@..    ",
"    ....@@@@........@@@@....    ",
"    ....@@@@........@@@@....    ",
"  ............................  ",
"  ............................  ",
"  ............................  ",
"  ............................  ",
"  ............................  ",
"  ............................  ",
"  ............................  ",
"  ............................  ",
"  ............................  ",
"  ............................  ",
"  ............................  ",
"  ............................  ",
"  ........  ........  ........  ",
"  ........  ........  ........  ",
"    ....      ....      ....    ",
"    ....      ....      ....    ",
"                                ",
"                                "};
