/* XPM */
static char * going_east_north_13_xpm[] = {
"32 32 3 1",
" 	c #8c8c8c",
".	c #000000",
"+	c #009B00",
"                              ..",
"                             ...",
"                            ... ",
"                           ...  ",
"                          ++.   ",
"                         +++    ",
"                        +++     ",
"                       +++      ",
"                      +++       ",
"                     +++        ",
"                    +++         ",
"                   +++          ",
"                  +++           ",
"                 +++            ",
"                +++             ",
"               +++              ",
"               ++               ",
"                                ",
"                                ",
"                                ",
"                                ",
"                                ",
"                                ",
"                                ",
"                                ",
"                                ",
"                                ",
"                                ",
"                                ",
"                                ",
"                                ",
"                                "};
