/* XPM */
static char * going_south_east_07_xpm[] = {
"32 32 3 1",
" 	c #8c8c8c",
".	c #009B00",
"+	c #000000",
"                                ",
"                                ",
"                                ",
"                                ",
"                                ",
"                                ",
"                                ",
"                                ",
"                                ",
"                                ",
"                                ",
"                                ",
"                                ",
"                                ",
"                                ",
"               ..               ",
"               ...              ",
"                ...             ",
"                 ...            ",
"                  ...           ",
"                   ...          ",
"                    ..+         ",
"                     +++        ",
"                      +++       ",
"                       +++      ",
"                        +++     ",
"                         +++    ",
"                          +++   ",
"                           +++  ",
"                            +++ ",
"                             +++",
"                              ++"};
