/* XPM */
static char * going_south_08_xpm[] = {
"32 32 3 1",
" 	c #8c8c8c",
".	c #009B00",
"+	c #000000",
"                                ",
"                                ",
"                                ",
"                                ",
"                                ",
"                                ",
"                                ",
"                                ",
"                                ",
"                                ",
"                                ",
"                                ",
"                                ",
"                                ",
"                                ",
"               ..               ",
"               ..               ",
"               ..               ",
"               ..               ",
"               ..               ",
"               ..               ",
"               ..               ",
"               ..               ",
"               ++               ",
"               ++               ",
"               ++               ",
"               ++               ",
"               ++               ",
"               ++               ",
"               ++               ",
"               ++               ",
"               ++               "};
