/* XPM */
static char * going_west_south_01_xpm[] = {
"32 32 3 1",
" 	c #8c8c8c",
".	c #000000",
"+	c #009B00",
"                                ",
"                                ",
"                                ",
"                                ",
"                                ",
"                                ",
"                                ",
"                                ",
"                                ",
"                                ",
"                                ",
"                                ",
"                                ",
"                                ",
"                                ",
"               .+               ",
"              ...               ",
"             ...                ",
"            ...                 ",
"           ...                  ",
"          ...                   ",
"         ...                    ",
"        ...                     ",
"       ...                      ",
"      ...                       ",
"     ...                        ",
"    ...                         ",
"   ...                          ",
"  ...                           ",
" ...                            ",
"...                             ",
"..                              "};
