/* XPM */
static char * going_south_17_xpm[] = {
"32 32 2 1",
" 	c #8c8c8c",
"+	c #009B00",
"                                ",
"                                ",
"                                ",
"                                ",
"                                ",
"                                ",
"                                ",
"                                ",
"                                ",
"                                ",
"                                ",
"                                ",
"                                ",
"                                ",
"                                ",
"               ++               ",
"               ++               ",
"               ++               ",
"               ++               ",
"               ++               ",
"               ++               ",
"               ++               ",
"               ++               ",
"               ++               ",
"               ++               ",
"               ++               ",
"               ++               ",
"               ++               ",
"               ++               ",
"               ++               ",
"               ++               ",
"               ++               "};
