/* XPM */
static char * going_east_north_06_xpm[] = {
"32 32 3 1",
" 	c #707070",
".	c #000000",
"+	c #009B00",
"                              ..",
"                             ...",
"                            ... ",
"                           ...  ",
"                          ...   ",
"                         ...    ",
"                        ...     ",
"                       ...      ",
"                      ...       ",
"                     ...        ",
"                    ...         ",
"                   ++.          ",
"                  +++           ",
"                 +++            ",
"                +++             ",
"               +++              ",
"               ++               ",
"                                ",
"                                ",
"                                ",
"                                ",
"                                ",
"                                ",
"                                ",
"                                ",
"                                ",
"                                ",
"                                ",
"                                ",
"                                ",
"                                ",
"                                "};
