/* XPM */
static char * going_south_00_xpm[] = {
"32 32 2 1",
" 	c #707070",
".	c #000000",
"                                ",
"                                ",
"                                ",
"                                ",
"                                ",
"                                ",
"                                ",
"                                ",
"                                ",
"                                ",
"                                ",
"                                ",
"                                ",
"                                ",
"                                ",
"               ..               ",
"               ..               ",
"               ..               ",
"               ..               ",
"               ..               ",
"               ..               ",
"               ..               ",
"               ..               ",
"               ..               ",
"               ..               ",
"               ..               ",
"               ..               ",
"               ..               ",
"               ..               ",
"               ..               ",
"               ..               ",
"               ..               "};
