/* XPM */
static char * going_north_west_05_xpm[] = {
"32 32 3 1",
" 	c #000000",
".	c #707070",
"+	c #009B00",
"  ..............................",
"   .............................",
".   ............................",
"..   ...........................",
"...   ..........................",
"....   .........................",
".....   ........................",
"......   .......................",
".......   ......................",
"........   .....................",
".........   ....................",
"..........   ...................",
"........... ++..................",
"............+++.................",
".............+++................",
"..............+++...............",
"...............++...............",
"................................",
"................................",
"................................",
"................................",
"................................",
"................................",
"................................",
"................................",
"................................",
"................................",
"................................",
"................................",
"................................",
"................................",
"................................"};
