/* XPM */
static char * going_south_12_xpm[] = {
"32 32 3 1",
" 	c #707070",
".	c #009B00",
"+	c #000000",
"                                ",
"                                ",
"                                ",
"                                ",
"                                ",
"                                ",
"                                ",
"                                ",
"                                ",
"                                ",
"                                ",
"                                ",
"                                ",
"                                ",
"                                ",
"               ..               ",
"               ..               ",
"               ..               ",
"               ..               ",
"               ..               ",
"               ..               ",
"               ..               ",
"               ..               ",
"               ..               ",
"               ..               ",
"               ..               ",
"               ..               ",
"               ++               ",
"               ++               ",
"               ++               ",
"               ++               ",
"               ++               "};
