/* XPM */
static char * inky_west_01_xpm[] = {
"32 32 4 1",
" 	c #8C8C8C",
".	c #00FFFF",
"+	c #F8F8F8",
"@	c #0012FF",
"                                ",
"                                ",
"            ........            ",
"            ........            ",
"        ................        ",
"        ................        ",
"      ....................      ",
"      ....................      ",
"    ..++++........++++......    ",
"    ..++++........++++......    ",
"    ++++++++....++++++++....    ",
"    ++++++++....++++++++....    ",
"    @@@@++++....@@@@++++....    ",
"    @@@@++++....@@@@++++....    ",
"  ..@@@@++++....@@@@++++......  ",
"  ..@@@@++++....@@@@++++......  ",
"  ....++++........++++........  ",
"  ....++++........++++........  ",
"  ............................  ",
"  ............................  ",
"  ............................  ",
"  ............................  ",
"  ............................  ",
"  ............................  ",
"  ............................  ",
"  ............................  ",
"  ........  ........  ........  ",
"  ........  ........  ........  ",
"    ....      ....      ....    ",
"    ....      ....      ....    ",
"                                ",
"                                "};
