/* XPM */
static char * pacman_west_07_xpm[] = {
"32 32 2 1",
" 	c #8C8C8C",
".	c #FFF700",
"             ......             ",
"          ............          ",
"        ................        ",
"      ....................      ",
"     ......................     ",
"    ........................    ",
"   ..........................   ",
"   ..........................   ",
"   ...........................  ",
"     .........................  ",
"       ........................ ",
"         ...................... ",
"           .................... ",
"             ...................",
"               .................",
"                ................",
"                ................",
"               .................",
"             ...................",
"           .................... ",
"         ...................... ",
"       ........................ ",
"     .........................  ",
"   ...........................  ",
"   ..........................   ",
"   ..........................   ",
"    ........................    ",
"     ......................     ",
"      ....................      ",
"        ................        ",
"          ............          ",
"             ......             "};
