/* XPM */
static char * pacman_east_08_xpm[] = {
"32 32 2 1",
" 	c #8C8C8C",
".	c #FFF700",
"             ......             ",
"          ............          ",
"        ................        ",
"      ....................      ",
"     ......................     ",
"    ........................    ",
"   ..........................   ",
"   .........................    ",
"  ........................      ",
"  .......................       ",
" ......................         ",
" .....................          ",
" ...................            ",
"...................             ",
".................               ",
"................                ",
"................                ",
".................               ",
"...................             ",
" ...................            ",
" .....................          ",
" ......................         ",
"  .......................       ",
"  ........................      ",
"   .........................    ",
"   ..........................   ",
"    ........................    ",
"     ......................     ",
"      ....................      ",
"        ................        ",
"          ............          ",
"             ......             "};
