/* XPM */
static char * pacman_west_south_05_xpm[] = {
"32 32 2 1",
" 	c #8C8C8C",
".	c #F0F000",
"             ......             ",
"          ............          ",
"        ................        ",
"      ....................      ",
"     ......................     ",
"    ........................    ",
"   ..........................   ",
"   ..........................   ",
"  ............................  ",
"  ............................  ",
" .............................. ",
" .............................. ",
" .............................. ",
"................................",
"................................",
"................................",
".............   ................",
"...........     ................",
".........       ................",
" ......        ................ ",
" ....          ................ ",
" ..           ................. ",
"              ................  ",
"             .................  ",
"             ................   ",
"            .................   ",
"            ................    ",
"           ................     ",
"           ...............      ",
"          ..............        ",
"          ............          ",
"             ......             "};
