/* XPM */
static char * pinky_south_01_xpm[] = {
"32 32 4 1",
" 	c #8C8C8C",
".	c #FFB7FD",
"+	c #F8F8F8",
"@	c #0012FF",
"                                ",
"                                ",
"            ........            ",
"            ........            ",
"        ................        ",
"        ................        ",
"      ....................      ",
"      ....................      ",
"    ........................    ",
"    ........................    ",
"    ....++++........++++....    ",
"    ....++++........++++....    ",
"    ..++++++++....++++++++..    ",
"    ..++++++++....++++++++..    ",
"  ....++++++++....++++++++....  ",
"  ....++++++++....++++++++....  ",
"  ....++@@@@++....++@@@@++....  ",
"  ....++@@@@++....++@@@@++....  ",
"  ......@@@@........@@@@......  ",
"  ......@@@@........@@@@......  ",
"  ............................  ",
"  ............................  ",
"  ............................  ",
"  ............................  ",
"  ............................  ",
"  ............................  ",
"  ........  ........  ........  ",
"  ........  ........  ........  ",
"    ....      ....      ....    ",
"    ....      ....      ....    ",
"                                ",
"                                "};
