/* XPM */
static char * spike_left_xpm[] = {
"32 32 24 1",
" 	c None",
".	c #8C8C8C",
"+	c #8A8A8A",
"@	c #838383",
"#	c #818181",
"$	c #787878",
"%	c #4C524C",
"&	c #3B553B",
"*	c #505550",
"=	c #365736",
"-	c #176215",
";	c #098700",
">	c #3B5A3B",
",	c #0B9500",
"'	c #0DA200",
")	c #0C9D00",
"!	c #3C5F3B",
"~	c #0FAB00",
"{	c #0FAD00",
"]	c #0D9F00",
"^	c #505050",
"/	c #363636",
"(	c #164815",
"_	c #0B9300",
"................................",
"..........................+@#@+.",
"........................+@$%&*@.",
"......................+@$%=-;>#.",
"....................+@$%=-,')!#.",
"..................+@$%=-,'~{]!#.",
"................+@$%=-,'~{{{]!#.",
"..............+@$%=-,'~{{{{{]!#.",
"............+@$%=-,'~{{{{{{{]!#.",
"..........+@$%=-,'~{{{{{{{{{]!#.",
"........+@$%=-,'~{{{{{{{{{{{]!#.",
"......+@$%=-,'~{{{{{{{{{{{{{]!#.",
"....+@$%=-,'~{{{{{{{{{{{{{{{]!#.",
"..+@$%=-,'~{{{{{{{{{{{{{{{{{]!#.",
"+@$%=-,'~{{{{{{{{{{{{{{{{{{{]!#.",
"#^/(_'~{{{{{{{{{{{{{{{{{{{{{]!#.",
"#^/(_'~{{{{{{{{{{{{{{{{{{{{{]!#.",
"+@$%=-,'~{{{{{{{{{{{{{{{{{{{]!#.",
"..+@$%=-,'~{{{{{{{{{{{{{{{{{]!#.",
"....+@$%=-,'~{{{{{{{{{{{{{{{]!#.",
"......+@$%=-,'~{{{{{{{{{{{{{]!#.",
"........+@$%=-,'~{{{{{{{{{{{]!#.",
"..........+@$%=-,'~{{{{{{{{{]!#.",
"............+@$%=-,'~{{{{{{{]!#.",
"..............+@$%=-,'~{{{{{]!#.",
"................+@$%=-,'~{{{]!#.",
"..................+@$%=-,'~{]!#.",
"....................+@$%=-,')!#.",
"......................+@$%=-;>#.",
"........................+@$%&*@.",
"..........................+@#@+.",
"................................"};
