/* XPM */
static char * spike_north_xpm[] = {
"32 32 36 1",
" 	c None",
".	c #8C8C8C",
"+	c #8A8A8A",
"@	c #818181",
"#	c #838383",
"$	c #505050",
"%	c #797979",
"&	c #363636",
"*	c #353535",
"=	c #787878",
"-	c #4D524C",
";	c #164815",
">	c #164814",
",	c #4C524C",
"'	c #365736",
")	c #0B9300",
"!	c #365735",
"~	c #176215",
"{	c #0DA200",
"]	c #176315",
"^	c #0B9500",
"/	c #0FAB00",
"(	c #0FAD00",
"_	c #176314",
":	c #4D524D",
"<	c #3B553B",
"[	c #098700",
"}	c #0C9D00",
"|	c #0D9F00",
"1	c #0D9D00",
"2	c #3C553B",
"3	c #505550",
"4	c #3C5A3B",
"5	c #3C5F3B",
"6	c #3B5F3B",
"7	c #3B5A3B",
"..............+@@+..............",
"..............#$$#..............",
".............+%&*=+.............",
".............#-;>,#.............",
"............+%'))!=+............",
"............#,~{{],#............",
"...........+%'^//^'=+...........",
"...........#,~{(({],#...........",
"..........+='^/((/^'=+..........",
"..........#,~{(((({],#..........",
".........+='^/((((/^'=+.........",
".........#,~{(((((({~,#.........",
"........+='^/((((((/^'=+........",
"........#,~{(((((((({~,#........",
".......+='^/((((((((/^'=+.......",
".......#,]{(((((((((({~,#.......",
"......+='^/((((((((((/^'%+......",
"......#,]{(((((((((((({~,#......",
".....+='^/((((((((((((/^'%+.....",
".....#,_{(((((((((((((({~,#.....",
"....+='^/((((((((((((((/^'%+....",
"....#,_{(((((((((((((((({~-#....",
"...+='^/((((((((((((((((/^'%+...",
"...#,_{(((((((((((((((((({~-#...",
"..+=!^/((((((((((((((((((/^'%+..",
"..#,_{(((((((((((((((((((({~:#..",
".+=!^/((((((((((((((((((((/^'%+.",
".#,_{(((((((((((((((((((((({~:#.",
".@<[}||||||||||||||||||||||1[2@.",
".#3455555555555555666666666673#.",
".+#@@@@@@@@@@@@@@@@@@@@@@@@@@#+.",
"................................"};
