/* XPM */
static char * stairs_xpm[] = {
"32 32 4 1",
" 	c #8C8C8C",
".	c #000000",
"+	c #666666",
"@	c #777777",
"                                ",
"                                ",
"                                ",
"                                ",
"                                ",
"                                ",
"                                ",
"         ....                   ",
"       ...  ...                 ",
"     ...      ...               ",
"   ...         ....             ",
" ...          ..++...           ",
"..          ..@.++++...         ",
".         ..@@@.++++++...       ",
"..      ..@@@@..++++++++...     ",
" ...  ..@@@@..  ..++++++++...   ",
"   ...@@@@..      ..++++++++... ",
"     .....         .++++++++++..",
"       ...        ..+++++++++++.",
"         ...    ..@.+++++++++++.",
"           .....@@@.+++++++++++.",
"             ...@@..++++++++++..",
"               ...  ..++++++... ",
"                 ...  ..++...   ",
"                   ... ....     ",
"                     ....       ",
"                                ",
"                                ",
"                                ",
"                                ",
"                                ",
"                                "};
