/* XPM */
static char * tux_north_04_xpm[] = {
"32 32 3 1",
" 	c #8C8C8C",
".	c #000000",
"+	c #FFAB00",
"             ......             ",
"           ..........           ",
"          ............          ",
"         ..............         ",
"         ..............         ",
"        ................        ",
"        ................        ",
"       ..................       ",
"       ..................       ",
"       ..................       ",
"      ....................      ",
"      ....................      ",
"     ......................     ",
"    ........................    ",
"   ..........................   ",
" .............................. ",
"................................",
"... ........................ ...",
"    ........................    ",
"    ........................    ",
"    ........................    ",
"    ........................    ",
"    ........................    ",
"    ........................    ",
"     ......................     ",
"     .....................      ",
"    ..++++.................     ",
"   ..++++++............+++..    ",
"   .++++++++.........++++++..   ",
"   ..++++++..      .++++++++.   ",
"    ........       ..++++++..   ",
"                    ........    "};
