/* XPM */
static char * wall_xpm[] = {
"32 32 2 1",
" 	c #C32727",
".	c #782727",
"                            .   ",
"                            .   ",
"                            .   ",
".............................   ",
"   .                    .   .   ",
"   .                    .   .   ",
"   .                    .   .   ",
"   ......................   .   ",
"   .   .            .   .   .   ",
"   .   .            .   .   .   ",
"   .   .            .   .   .   ",
"   .   ..............   .   .   ",
"   .   .   .     .  .   .   .   ",
"   .   .   .     .  .   .   .   ",
"   .   .   .......  .   .   .   ",
"   .   .   .  .  .  .   .   .   ",
"   .   .   .  .  .  .   .   .   ",
"   .   .   .  .......   .   .   ",
"   .   .   .  .     .   .   .   ",
"   .   .   .  .     .   .   .   ",
"   .   .   ..............   .   ",
"   .   .   .            .   .   ",
"   .   .   .            .   .   ",
"   .   .   .            .   .   ",
"   .   ......................   ",
"   .   .                    .   ",
"   .   .                    .   ",
"   .   .                    .   ",
"   .............................",
"   .                            ",
"   .                            ",
"   .                            "};
