/* XPM */
static char * apple_xpm[] = {
"32 32 8 1",
" 	c #8C8C8C",
".	c #000000",
"+	c #0FAD00",
"@	c #E7C900",
"#	c #E79100",
"$	c #B81E1E",
"%	c #A339DE",
"&	c #0CB4FC",
"                                ",
"                  ....          ",
"                 ..++.          ",
"                ..++..          ",
"               ..++..           ",
"               .++..            ",
"               ....             ",
"       .....        .....       ",
"     ...+++....  ....+++...     ",
"    ..++++++++....++++++++..    ",
"   ..++++++++++++++++++++++..   ",
"   .@@@@@@@@@@@@@@@@@@@@@@...   ",
"  ..@@@@@@@@@@@@@@@@@@@@@..     ",
"  .@@@@@@@@@@@@@@@@@@@@@@.      ",
" ..@@@@@@@@@@@@@@@@@@@@@..      ",
" .######################.       ",
" .#####################..       ",
" .#####################.        ",
" ..####################.        ",
"  .$$$$$$$$$$$$$$$$$$$$.        ",
"  .$$$$$$$$$$$$$$$$$$$$..       ",
"  ..$$$$$$$$$$$$$$$$$$$$.       ",
"   .$$$$$$$$$$$$$$$$$$$$..      ",
"   .%%%%%%%%%%%%%%%%%%%%%..     ",
"   ..%%%%%%%%%%%%%%%%%%%%%..    ",
"    .%%%%%%%%%%%%%%%%%%%%%%.    ",
"    ..%%%%%%%%%%%%%%%%%%%%..    ",
"     .&&&&&&&&&&&&&&&&&&&&.     ",
"     ..&&&&&&&&&&&&&&&&&&..     ",
"      ..&&&&&&....&&&&&&..      ",
"       ..&&....  ....&&..       ",
"        ....        ....        "};
