/* XPM */
static char * arch_xpm[] = {
"32 32 3 1",
" 	c #8C8C8C",
".	c #000000",
"+	c #3A8BAB",
"                                ",
"              ....              ",
"              .++.              ",
"             ..++..             ",
"             .++++.             ",
"            ..++++..            ",
"            .++++++.            ",
"           ..++++++..           ",
"            ..++++++.           ",
"             ...++++..          ",
"          ...  ..++++.          ",
"         ..+....+++++..         ",
"         .++++++++++++.         ",
"        ..++++++++++++..        ",
"        .++++++++++++++.        ",
"       ..++++++++++++++..       ",
"       .++++++++++++++++.       ",
"      ..++++++....++++++..      ",
"      .++++++..  ..+++....      ",
"     ..++++++.    .++..  ..     ",
"     .++++++..    ..++...       ",
"    ..++++++.      .++++...     ",
"    .+++++++.      .++++++..    ",
"   ..++++++..      ..++++++..   ",
"   .+++++...        ...+++++.   ",
"  ..+++...            ...+++..  ",
"  .+++..                ..+++.  ",
" ..+...                  ...+.. ",
" .+..                      ..+. ",
" ...                        ... ",
"                                ",
"                                "};
