/* XPM */
static char * collect_xpm[] = {
"32 32 5 1",
" 	c #8C8C8C",
".	c #000000",
"+	c #AA6724",
"@	c #FFFFFF",
"#	c #884300",
"                                ",
"                                ",
"                                ",
"                                ",
"                                ",
"                                ",
"     ......................     ",
"     .++++++++++++++++++++.     ",
"     .++++++++++++++++++++.     ",
"     .++++++++++++++++++++.     ",
"     .++++++........++++++.     ",
"     ........@@@@@@........     ",
"     .######........######.     ",
"     .####################.     ",
"     .####################.     ",
"     .####################.     ",
"     .####################.     ",
"     .####################.     ",
"     .####################.     ",
"     .####################.     ",
"     .####################.     ",
"     .####################.     ",
"     .####################.     ",
"     .####################.     ",
"     .####################.     ",
"     .####################.     ",
"     ......................     ",
"                                ",
"                                ",
"                                ",
"                                ",
"                                "};
