/* XPM */
static char * player_xpm[] = {
"32 32 4 1",
" 	c #8C8C8C",
".	c #000000",
"+	c #FFFF00",
"@	c #C32727",
"       ...                  ....",
"       ...                 .....",
"       ....                .....",
"        ..+.              .++...",
"        .+++.            .++++. ",
"        .+++.           .+++++. ",
"         .+++.          .++++.. ",
"         .++++.        .+++++.  ",
"         .++++.        .+++++.  ",
"          .++......   .+++++.   ",
"          ....+++++....++++.    ",
"         ..+++++++++++......    ",
"        ..+++++++++++++++..     ",
"       .++++++++++++++++++..    ",
"      .++..++++++..++++++++.    ",
"     .++....++++....++++++++.   ",
"    .+++....++++....++++++++.   ",
"   .+++++..++++++..+++++++++.   ",
"  .+++++++++++++++++++++++++.   ",
"  .++++++++++++++++++++++++++.  ",
"  .@+++++++++++++++++@@++++++.  ",
"  .@+++++++++++++++++@@++++++.  ",
"  .++++++++++++++++++++++++++.  ",
"   .+++++++++++++++++++++++++.  ",
"   .++++.....++++++++++++++++.  ",
"    .+++..++.++++++++++++++++.  ",
"    ..+++....+++++++++++++++.   ",
"     ..+++++++++++++++++++++.   ",
"      ..++++++++++++++++++++.   ",
"       ..+++++++++++++++++++.   ",
"        .+++++++++++++++++++.   ",
"        ..++++++++++++++++++.   "};
